<?xml version="1.0" encoding="utf-8"?>
<!-- Generator: Adobe Illustrator 16.0.0, SVG Export Plug-In . SVG Version: 6.00 Build 0)  -->
<!DOCTYPE svg PUBLIC "-//W3C//DTD SVG 1.1//EN" "http://www.w3.org/Graphics/SVG/1.1/DTD/svg11.dtd">
<svg version="1.1" id="Слой_1" xmlns="http://www.w3.org/2000/svg" xmlns:xlink="http://www.w3.org/1999/xlink" x="0px" y="0px"
	 width="25px" height="25px" viewBox="0 0 25 25" enable-background="new 0 0 25 25" xml:space="preserve">
<path fill="none" stroke="#00AEEF" stroke-width="3" stroke-miterlimit="10" d="M12.5,25c0-6.91-5.592-12.5-12.5-12.5"/>
<path fill="none" stroke="#FFFFFF" stroke-width="6" stroke-miterlimit="10" d="M12.5,25c0-3.225,1.218-6.162,3.22-8.378"/>
<path fill="none" stroke="#00AEEF" stroke-width="3" stroke-miterlimit="10" d="M12.5,25c0-6.909,5.59-12.5,12.5-12.5"/>
<path fill="none" stroke="#FFFFFF" stroke-width="6" stroke-miterlimit="10" d="M25,12.5c-3.225,0-6.162-1.218-8.378-3.22"/>
<path fill="none" stroke="#00AEEF" stroke-width="3" stroke-miterlimit="10" d="M12.5,0c0,6.908,5.59,12.5,12.5,12.5"/>
<path fill="none" stroke="#FFFFFF" stroke-width="6" stroke-miterlimit="10" d="M12.5,0c0,3.225-1.218,6.162-3.22,8.378"/>
<path fill="none" stroke="#00AEEF" stroke-width="3" stroke-miterlimit="10" d="M12.5,0c0,6.91-5.592,12.5-12.5,12.5"/>
<path fill="none" stroke="#FFFFFF" stroke-width="6" stroke-miterlimit="10" d="M0,12.5c3.225,0,6.162,1.219,8.379,3.221"/>
<path fill="none" stroke="#00AEEF" stroke-width="3" stroke-miterlimit="10" d="M10.393,18.047C8.151,14.7,4.334,12.5,0,12.5"/>
</svg>
